<?xml version="1.0"?>
<svg xmlns="http://www.w3.org/2000/svg" viewBox="0 0 64 64" width="512" height="512"><g id="Flat"><rect x="27" y="3" width="10" height="18" style="fill:#e6e6e6"/><rect x="27" y="17" width="10" height="4" style="fill:#b3b3b3"/><path d="M25,37c-5.523,0-10,1.343-10,3V58c0,1.657,4.477,3,10,3s10-1.343,10-3V40C35,38.343,30.523,37,25,37Z" style="fill:#f5cf68"/><ellipse cx="25" cy="40" rx="10" ry="3" style="fill:#f5cf68"/><path d="M15,58c0,1.657,4.477,3,10,3s10-1.343,10-3V52c0,1.657-4.477,3-10,3s-10-1.343-10-3Z" style="fill:#fdb62f"/><path d="M35,40c0,1.657-4.477,3-10,3s-10-1.343-10-3v6c0,1.657,4.477,3,10,3s10-1.343,10-3Z" style="fill:#fdb62f"/><path d="M48,52a6.967,6.967,0,0,0-.2-1.619l1.99-1.149-2-3.464L45.8,46.917A6.973,6.973,0,0,0,43,45.294V43H39v2.294a6.973,6.973,0,0,0-2.8,1.623l-1.991-1.149-2,3.464,1.99,1.149a6.785,6.785,0,0,0,0,3.238l-1.99,1.149,2,3.464L36.2,57.083A6.973,6.973,0,0,0,39,58.706V61h4V58.706a6.973,6.973,0,0,0,2.8-1.623l1.991,1.149,2-3.464L47.8,53.619A6.967,6.967,0,0,0,48,52Zm-7,3a3,3,0,1,1,3-3A3,3,0,0,1,41,55Z" style="fill:#6cbbc7"/><path d="M32,20a.99.99,0,0,1-1-1,1.045,1.045,0,0,1,.29-.71,1.7,1.7,0,0,1,.149-.12.782.782,0,0,1,.181-.09.636.636,0,0,1,.18-.06,1.018,1.018,0,0,1,.91.27A1.05,1.05,0,0,1,33,19a.99.99,0,0,1-1,1Z" style="fill:#e6e6e6"/><polygon points="53 24 51 24 51 28 33 28 33 24 31 24 31 28 13 28 13 24 11 24 11 30 31 30 31 34 33 34 33 30 53 30 53 24" style="fill:#b3b3b3"/><rect x="3" y="3" width="18" height="14" style="fill:#e6e6e6"/><rect x="3" y="13" width="18" height="4" style="fill:#b3b3b3"/><rect x="9" y="17" width="6" height="4" style="fill:gray"/><rect x="6" y="20" width="12" height="2" style="fill:#b3b3b3"/><rect x="43" y="3" width="18" height="18" style="fill:#e6e6e6"/><rect x="43" y="3" width="18" height="6" style="fill:#b3b3b3"/><path d="M46,7a1,1,0,0,1-.38-.08,1.155,1.155,0,0,1-.33-.21.99.99,0,0,1-.21-1.09,1.032,1.032,0,0,1,.21-.33,1,1,0,0,1,.9-.27.609.609,0,0,1,.191.06.568.568,0,0,1,.17.09,1,1,0,0,1,.16.12A1.05,1.05,0,0,1,47,6a.994.994,0,0,1-.29.71,1.169,1.169,0,0,1-.33.21A1,1,0,0,1,46,7Z" style="fill:#ff6536"/><path d="M49,7a.991.991,0,0,1-.71-.29,1.169,1.169,0,0,1-.21-.33A.838.838,0,0,1,48,6a1,1,0,0,1,.08-.38,1.032,1.032,0,0,1,.21-.33,1.047,1.047,0,0,1,1.42,0,1.155,1.155,0,0,1,.21.33.942.942,0,0,1,0,.76,1.169,1.169,0,0,1-.21.33,1.169,1.169,0,0,1-.33.21A1,1,0,0,1,49,7Z" style="fill:#fdb62f"/><path d="M52,7a1,1,0,0,1-.38-.08,1.155,1.155,0,0,1-.33-.21,1.169,1.169,0,0,1-.21-.33.943.943,0,0,1,0-.76.933.933,0,0,1,.21-.33,1.7,1.7,0,0,1,.149-.12.782.782,0,0,1,.181-.09.636.636,0,0,1,.18-.06.949.949,0,0,1,.58.06,1.169,1.169,0,0,1,.33.21.933.933,0,0,1,.21.33.942.942,0,0,1,0,.76,1.169,1.169,0,0,1-.21.33A1.033,1.033,0,0,1,52,7Z" style="fill:#02998a"/></g></svg>
